<svg width="46" height="28" fill="none" xmlns="http://www.w3.org/2000/svg"><g clip-path="url(#a)"><path d="M46 2.52H0v22.4h46V2.52Z" fill="#F6F6F6"/><path fill-rule="evenodd" clip-rule="evenodd" d="M42.55 0H2.3C1.15 0 0 1.12 0 2.24V5.6h46V3.36C46 1.12 44.85 0 42.55 0Z" fill="#265697"/><path fill-rule="evenodd" clip-rule="evenodd" d="M0 22.4v2.24C0 26.88 1.15 28 3.45 28h39.1c2.3 0 3.45-1.12 3.45-3.36V22.4H0Z" fill="#D97B16"/><path fill-rule="evenodd" clip-rule="evenodd" d="M32.09 8.34a8.44 8.44 0 0 0-2.917-.5c-3.215 0-5.48 1.612-5.5 3.92-.018 1.708 1.617 2.66 2.852 3.229 1.266.582 1.692.953 1.686 1.473-.008.797-1.012 1.16-1.947 1.16-1.302 0-1.994-.18-3.063-.623l-.42-.189-.456 2.66c.76.331 2.166.619 3.625.634 3.42 0 5.64-1.593 5.666-4.06.012-1.351-.855-2.38-2.732-3.227-1.137-.55-1.834-.917-1.826-1.473 0-.494.59-1.022 1.863-1.022a6.03 6.03 0 0 1 2.436.455l.291.137.441-2.575Zm8.344-.282h-2.515c-.779 0-1.362.211-1.704.985l-4.833 10.888H34.8s.559-1.464.685-1.785l4.168.005c.097.416.396 1.78.396 1.78h3.02L40.433 8.058Zm-4.013 7.658c.269-.685 1.296-3.322 1.296-3.322-.019.032.267-.688.432-1.133l.22 1.024.753 3.43h-2.701Zm-19.387 4.211 2.035-11.88h3.254l-2.036 11.88h-3.253ZM14.305 8.055l-3.186 8.102-.34-1.646c-.592-1.898-2.44-3.955-4.506-4.984l2.913 10.39 3.443-.004 5.123-11.858h-3.447Z" fill="#265697"/><path fill-rule="evenodd" clip-rule="evenodd" d="M8.164 8.048H2.917l-.042.247c4.082.983 6.783 3.36 7.905 6.216L9.639 9.05c-.197-.752-.769-.977-1.475-1.003Z" fill="#D97B16"/></g><defs><clipPath id="a"><path fill="#fff" d="M0 0h46v28H0z"/></clipPath></defs></svg>