<svg width="39" height="39" fill="none" xmlns="http://www.w3.org/2000/svg"><g clip-path="url(#a)"><path d="M21.366 27.824a11.564 11.564 0 0 0 1.813-6.223C23.18 15.195 17.992 10 11.593 10 5.187 10 0 15.195 0 21.601c0 6.406 5.187 11.601 11.586 11.601 2.323 0 4.486-.686 6.3-1.859l.525-.365 8.272 8.272 2.567-2.613-8.265-8.272.381-.54ZM18.083 15.12a9.098 9.098 0 0 1 2.682 6.474 9.098 9.098 0 0 1-2.682 6.475 9.098 9.098 0 0 1-6.474 2.681 9.098 9.098 0 0 1-6.475-2.681 9.098 9.098 0 0 1-2.681-6.475c0-2.445.952-4.745 2.681-6.474a9.098 9.098 0 0 1 6.475-2.681 9.1 9.1 0 0 1 6.474 2.68Z" fill="#000"/></g><defs><clipPath id="a"><path fill="#fff" d="M0 0h39v39H0z"/></clipPath></defs></svg>