<svg width="122" height="122" fill="none" xmlns="http://www.w3.org/2000/svg"><path d="m47.656 20.969-28.593 7.625v72.437l28.593-7.625V20.97Zm17.481 4.765-17.48-4.765v72.437l28.593 7.625v-50.63m0 0v50.63l28.594-7.625V50.401" stroke="#0771F5" stroke-width="2" stroke-linecap="round" stroke-linejoin="round"/><path d="M78.112 15.727a17.556 17.556 0 0 1 24.829-.004 17.548 17.548 0 0 1 5.184 12.425 17.541 17.541 0 0 1-5.14 12.444L90.573 53.01 78.13 40.569a17.56 17.56 0 0 1-.018-24.842Z" stroke="#0771F5" stroke-width="2" stroke-linecap="round" stroke-linejoin="round"/><path d="M90.547 36.142a8.159 8.159 0 1 0 0-16.317 8.159 8.159 0 0 0 0 16.317Z" stroke="#0771F5" stroke-width="2" stroke-linecap="round" stroke-linejoin="round"/></svg>