<svg viewBox="0 0 52 52" xml:space="preserve" xmlns="http://www.w3.org/2000/svg"><path d="M45.84 21.465H29v15.07c.06-5.52 4.55-10 10-10 5.46 0 9.95 4.44 10 9.9 0 .35-.02.69-.05 1.03H50v-10.33l-4.16-5.67z"/><path fill="#F93E2B" d="M38.51 11.465H29v8h15.37zM2 37.505h2.05c-.03-.32-.05-.64-.05-.97.04-5.52 4.52-10 10-10 5.49 0 9.98 4.46 10 9.95 0 .33-.02.66-.05.98h3.04v-30H2v30.04zm8-28.04h13v8c0 3.24-5.38 6.5-5.99 6.86l-.51.3-.5-.3c-.62-.36-6-3.62-6-6.86v-8z"/><path d="M14 28.535c-4.39 0-7.97 3.57-8 8 0 4.41 3.59 8 8 8s8-3.59 8-8.04c-.02-4.39-3.61-7.96-8-7.96zm0 11c-1.65 0-3-1.35-3-3 .03-1.68 1.38-3 3-3 1.65 0 2.97 1.29 3 2.95 0 1.7-1.34 3.05-3 3.05zm25-11c-4.36 0-7.95 3.55-8 8 0 4.41 3.59 8 8 8s8-3.59 8-8.08c-.04-4.37-3.63-7.92-8-7.92zm3 8c0 1.65-1.34 3-3 3-1.65 0-3-1.35-3-3v-.11c.06-1.62 1.38-2.89 3-2.89s2.94 1.27 3 2.89v.11z"/></svg>