<svg width="71" height="71" fill="none" xmlns="http://www.w3.org/2000/svg"><path fill-rule="evenodd" clip-rule="evenodd" d="M68.781 54.075c0 1.225-1 2.226-2.226 2.226H4.445c-1.225 0-2.226-1-2.226-2.226v-37.15c0-1.226 1-2.226 2.226-2.226h62.11c1.226 0 2.226 1 2.226 2.226v37.15Z" fill="#14477C"/><path fill-rule="evenodd" clip-rule="evenodd" d="m43.484 47.435.613-.012.613-.037.6-.088.588-.1.575-.138.575-.15.55-.2.55-.212.525-.238.513-.263.5-.288.489-.311.475-.338.45-.35.425-.375.424-.401.388-.413.376-.437.362-.45.338-.463.3-.488.3-.5.25-.512.25-.538.213-.538.188-.562.163-.563.136-.575.101-.601.075-.587.05-.614.012-.612-.012-.613-.05-.613-.075-.587-.1-.587-.137-.576-.163-.562-.188-.564-.212-.537-.25-.526-.25-.512-.301-.5-.3-.488-.338-.462-.362-.45-.376-.438-.388-.413-.424-.387-.425-.376-.45-.362-.475-.325-.488-.313-.501-.287-.513-.264-.524-.237-.55-.212-.55-.188-.576-.162-.575-.138-.588-.1-.6-.075-.613-.05-.613-.012-.612.012-.6.05-.6.075-.588.1-.576.138-.575.162-.55.188-.538.212-.526.238-.512.263-.5.287-.488.313-.462.325-.451.362-.438.376-.412.387-.4.413-.362.438-.364.45-.325.462-.312.488-.287.5-.263.512-.238.526-.213.537-.187.564-.162.562-.139.576-.099.587-.075.587-.05.613-.013.613.013.612.05.614.075.587.1.6.138.576.162.563.187.562.213.538.238.538.263.513.287.5.313.487.324.462.364.45.362.438.4.413.412.4.438.376.45.35.463.338.488.311.5.288.512.263.526.238.537.212.551.2.575.15.576.138.587.1.6.088.6.037.613.012Z" fill="#FBB230"/><path fill-rule="evenodd" clip-rule="evenodd" d="m27.516 47.435.613-.012.6-.037.6-.088.587-.1.576-.138.576-.15.55-.2.537-.212.525-.238.513-.263.5-.288.487-.311.463-.338.451-.35.438-.375.411-.401.401-.413.363-.437.362-.45.325-.463.313-.488.287-.5.263-.512.238-.538.213-.538.187-.562.163-.563.137-.575.1-.601.075-.587.05-.614.013-.612-.013-.613-.05-.613-.075-.587-.1-.587-.137-.576-.163-.562-.188-.564-.212-.537-.238-.526-.263-.512-.287-.5-.313-.488-.325-.462-.362-.45-.363-.438-.4-.413-.413-.387-.437-.376-.451-.362-.463-.325-.487-.313-.5-.287-.513-.264-.525-.237-.538-.212-.55-.188-.575-.162-.576-.138-.587-.1-.6-.075-.6-.05-.613-.012-.613.012-.613.05-.6.075-.588.1-.574.138-.576.162-.55.188-.55.212-.525.238-.513.263-.5.287-.488.313-.475.325-.45.362-.425.376-.425.387-.388.413-.376.438-.362.45-.338.462-.3.488-.3.5-.25.512-.25.526-.213.537-.187.564-.163.562-.125.576-.113.587-.074.587-.05.613-.013.613.012.612.05.614.075.587.113.6.125.576.163.563.187.562.213.538.25.538.25.513.3.5.3.487.338.462.362.45.376.438.388.413.425.4.424.376.451.35.476.338.486.311.501.288.513.263.524.238.55.212.551.2.576.15.574.138.588.1.6.088.613.037.613.012Z" fill="#EB2230"/><path fill-rule="evenodd" clip-rule="evenodd" d="M34.105 28.141h6.341v-.65h-5.79l-.55.65Zm-.95 1.439h7.29v-.651H33.53l-.375.65Zm-.712 1.437h8.003v-.65h-7.715l-.288.65Zm-.488 1.438h8.491v-.637h-8.291l-.2.637Zm.287 6.978h8.229v-.65h-8.428l.2.65Zm.601 1.437h7.628v-.65h-7.928l.3.65Zm.863 1.439h6.765v-.65h-7.178l.413.65Zm1.175 1.438h5.59v-.65h-6.165l.575.65Zm-3.213-9.854h8.778v-.638h-8.653l-.125.638Zm5.351 4.102h3.352v-.65h-3.227l-.125.65Zm.263-1.439h3.089v-.65h-2.964l-.125.65Zm-5.84-.65h.875v.65h-.825l-.05-.65ZM54.3 42.209c.314 0 .564.262.564.562a.56.56 0 0 1-.563.563.56.56 0 0 1-.562-.563c0-.3.25-.562.562-.562Zm0 .1c.264 0 .476.213.476.462a.475.475 0 0 1-.475.476.473.473 0 0 1-.463-.476.47.47 0 0 1 .463-.462Z" fill="#FBB230"/><path d="M54.089 43.021v-.475h.2c.05 0 .087 0 .112.013a.173.173 0 0 1 .05.037c.012.026.025.05.025.075a.151.151 0 0 1-.025.088.248.248 0 0 1-.101.05c.026.013.038.025.051.037.012.013.038.038.05.075l.062.1h-.112l-.076-.113c-.013-.037-.037-.049-.05-.062 0-.012-.012-.012-.024-.024h-.063v.2h-.1Zm.099-.275h.063c.05 0 .075 0 .087-.012.012 0 .026 0 .026-.013.012-.012.012-.024.012-.037 0-.013 0-.025-.012-.038-.014-.013-.026-.013-.038-.025h-.138v.125Z" fill="#FBB230"/><path fill-rule="evenodd" clip-rule="evenodd" d="M54.176 37.507a.56.56 0 0 1 .562.563.56.56 0 0 1-.562.562.56.56 0 0 1-.562-.562.56.56 0 0 1 .562-.563Zm0 .1c.263 0 .475.212.475.463a.475.475 0 1 1-.95 0c0-.25.212-.463.475-.463Z" fill="#fff"/><path d="M53.963 38.307v-.463h.2c.05 0 .088 0 .113.013.013 0 .037.025.05.038.012.024.024.05.024.075a.11.11 0 0 1-.037.087c-.012.025-.05.037-.087.05.013.012.037.025.05.038.013.012.025.037.05.074l.063.088h-.113l-.075-.1c-.025-.037-.038-.062-.05-.062-.013-.013-.013-.026-.025-.026h-.075v.188h-.088Zm.088-.262h.075c.05 0 .075 0 .088-.013.012 0 .025-.013.025-.013.012-.011.012-.024.012-.037a.14.14 0 0 0-.012-.038c-.013-.012-.025-.025-.038-.025h-.15v.126Z" fill="#fff"/><path fill-rule="evenodd" clip-rule="evenodd" d="m46.136 38.395.812-4.251h1.013l.125.437c.188-.188.5-.437 1.126-.437l-.313 1.125c-.275 0-.7-.05-1.05.775-.262.625-.388 1.663-.526 2.35h-1.187ZM30.805 33.08h1.124l-.25 1.126h.626l-.188.875h-.562l-.313 1.688c-.062.313 0 .626.626.5l-.125.938c-.675.513-2.026.138-1.814-1.125l.876-4.001Zm5.013 3.439c.125-.688.438-2.375-1.575-2.375-1.876 0-2.126 1.875-2.126 2.125-.061.25-.061 2.126 1.939 2.126.5 0 1.2-.063 1.513-.188l.187-.876c-.187.064-.825.126-1.325.126-.438 0-1.188 0-1.063-.938h2.45Zm-13.641 1.876 1-5.127h-1.95l-1.376 3.126-.25-3.126h-1.814l-1 5.127h1.125l.751-3.69.313 3.69h1.063l1.625-3.627-.688 3.627h1.2Zm1.313-4.127-.188.939c.313 0 1.063-.126 1.438-.126s.875-.062.688.563c-.313 0-2.377-.313-2.69 1.5-.174 1.201 1.252 1.639 2.127 1.063l.125.25h1.062l.439-2.313c.462-2.088-1.551-2.126-3.002-1.876Zm18.62.375c-.288-.175-.464-.175-.826-.175-.35 0-1.176.35-1.288 1.288-.176 1.176.587 1.701 1.7 1.35l.3 1.001c-1.9.95-3.714-.525-3.113-2.826.487-1.738 2.788-2.788 3.939-1.35l-.713.712Z" fill="#fff"/><path fill-rule="evenodd" clip-rule="evenodd" d="M52.025 34.643c-3.064-2.3-4.252 3.752-1.876 3.752.375 0 .751-.188 1-.313l.125.313h1.251l1-5.378h-1.188l-.312 1.626Zm-9.015-.375-.188.939c.312 0 1.063-.126 1.437-.126.376 0 .814-.062.689.563-.313 0-2.376-.313-2.688 1.5-.127.876.624 1.313 1.187 1.313.563 0 .75-.125.938-.25l.124.25h1.064l.438-2.313c.475-2.088-1.539-2.126-3.002-1.876Z" fill="#fff"/><path fill-rule="evenodd" clip-rule="evenodd" d="M33.368 35.706h1.438c.163-1.138-1.2-.912-1.438 0Zm-8.128.813c-.187 0-.625-.125-1 .126-.375.25-.5.687-.062.812.374.125.875-.125 1-.5l.063-.438Z" fill="#EB2230"/><path fill-rule="evenodd" clip-rule="evenodd" d="M51.462 35.331c-.375-.5-1.187-.124-1.438.813-.187.625.188 1.063.563 1.063.788 0 1.263-1.288.875-1.876Zm-6.64 1.188c-.187 0-.624-.125-1 .126-.374.25-.5.687-.062.812.375.125.938-.125 1-.5l.062-.438Z" fill="#FBB230"/><path fill-rule="evenodd" clip-rule="evenodd" d="m35.818 38.457.064-.438.75-3.813h1l.124.437c.188-.188.501-.437 1.127-.437l-.313 1.125c-.238 0-.739-.05-1.114.95-.212.575-.337 1.551-.45 2.176h-1.188Zm-6.051-3.226h-.1l-.05-.012-.05-.012h-.05l-.05-.013c-.226-.025-.413-.038-.638-.025-.576.05-.825.412-.338.687.388.225.689.188.95.438.564.525.275 1.538-.35 1.925l-.112.05-.125.051-.137.037-.125.037c-.6.1-1.413.075-2.001-.124l.162-.839c.475.1 1.251.313 1.613.064.413-.276.038-.601-.263-.738l-.15-.05-.149-.062c-1.188-.539-.912-1.977.212-2.277.45-.1.9-.1 1.364-.062h.087c.113.012.213.025.313.05h.05l.037.012h.037l.025.013h.038l-.2.85Z" fill="#fff"/></svg>