<svg width="46" height="46" fill="none" xmlns="http://www.w3.org/2000/svg"><g clip-path="url(#a)"><path d="M9.583 17.25a3.839 3.839 0 0 0-3.833 3.833v15.334a3.839 3.839 0 0 0 3.833 3.833h26.834a3.838 3.838 0 0 0 3.833-3.833V21.083a3.838 3.838 0 0 0-3.833-3.833H9.583Z" fill="#F1C40F"/><path d="M9.583 23a3.839 3.839 0 0 0-3.833 3.833v15.334A3.839 3.839 0 0 0 9.583 46h26.834a3.838 3.838 0 0 0 3.833-3.833V26.833A3.838 3.838 0 0 0 36.417 23H9.583Z" fill="#F39C12"/><path d="M23 1.917A13.375 13.375 0 0 0 9.584 15.333h5.75c0-4.216 3.432-7.666 7.666-7.666s7.667 3.45 7.667 7.666h5.75A13.375 13.375 0 0 0 23 1.917Z" fill="#BDC3C7"/><path d="M9.584 26.833v1.917h26.833v-1.917H9.583Zm0 3.834v1.916h26.833v-1.916H9.583Zm0 3.833v1.917h26.833V34.5H9.583Zm0 3.833v1.917h26.833v-1.917H9.583Z" fill="#E67E22"/><path d="M9.584 17.25v1.917c0 .958 1.287 1.916 2.875 1.916 1.587 0 2.875-.958 2.875-1.916V17.25c0 .958-1.288 1.917-2.875 1.917-1.588 0-2.875-.959-2.875-1.917Zm21.082 0v1.917c0 .958 1.288 1.916 2.875 1.916 1.588 0 2.876-.958 2.876-1.916V17.25c0 .958-1.288 1.917-2.876 1.917-1.586 0-2.874-.959-2.874-1.917Z" fill="#7F8C8D"/><path d="M23 4.672c-.673 0-1.34.065-1.976.18a10.732 10.732 0 0 0-2.576.838c-.203.095-.404.193-.599.3-.253.137-.482.322-.719.479-.222.146-.451.257-.658.42a9.47 9.47 0 0 0-.78.658c-.07.07-.11.168-.179.24-.322.334-.635.643-.898 1.018a8.428 8.428 0 0 0-.719 1.198c-.008.016.008.043 0 .06a8.31 8.31 0 0 0-.539 1.437c-.485 1.12-1.806 1.917-3.354 1.917-.115 0-.16.003-.24 0-.02-.001-.032.002-.06 0l-.12 1.916v3.834h5.75v-3.834c0-.529.078-1.058.18-1.557A7.632 7.632 0 0 1 23 7.666a7.667 7.667 0 0 1 7.667 7.667v3.834h5.75v-3.834l-.119-1.916c-.029.002-.04-.001-.061 0h-.24c-1.547 0-2.87-.797-3.354-1.917a8.3 8.3 0 0 0-.539-1.438c-.007-.016.008-.043 0-.06a8.522 8.522 0 0 0-.718-1.197c-.265-.375-.575-.684-.9-1.019-.068-.072-.105-.168-.18-.24a9.252 9.252 0 0 0-.778-.658c-.199-.156-.444-.277-.659-.42-.234-.154-.468-.342-.717-.478a10.656 10.656 0 0 0-.6-.3 10.724 10.724 0 0 0-2.576-.839A11.177 11.177 0 0 0 23 4.671Z" fill="#95A5A6"/></g><defs><clipPath id="a"><path fill="#fff" d="M0 0h46v46H0z"/></clipPath></defs></svg>