<svg width="38" height="33" fill="none" xmlns="http://www.w3.org/2000/svg"><path d="M32.4 21.966H12.97c-.321 0-.634-.094-.886-.268a1.222 1.222 0 0 1-.5-.689L8.311 8.676a1.068 1.068 0 0 1 0-.548c.046-.18.14-.349.273-.494.133-.144.302-.26.495-.341.192-.08.403-.122.617-.122h25.977c.214 0 .425.04.618.121.192.08.362.197.495.342.134.144.228.313.275.493.047.181.047.368 0 .549l-3.278 12.333a1.222 1.222 0 0 1-.499.688 1.565 1.565 0 0 1-.885.269Zm-18.298-2.459h17.167l2.62-9.875H11.48l2.622 9.875Zm1.648 13.442a6.063 6.063 0 0 1-3.024-.794c-.895-.518-1.593-1.254-2.005-2.114a4.125 4.125 0 0 1-.31-2.722c.21-.914.729-1.754 1.49-2.413.762-.659 1.732-1.107 2.788-1.289a6.235 6.235 0 0 1 3.145.268c.995.357 1.845.96 2.444 1.735.598.775.917 1.686.917 2.618-.001 1.249-.576 2.446-1.596 3.33-1.02.883-2.405 1.38-3.848 1.38Zm0-6.963c-.514 0-1.017.132-1.445.38-.428.247-.762.6-.959 1.01a1.972 1.972 0 0 0-.148 1.302c.1.437.349.838.713 1.153.364.315.828.53 1.333.617a2.981 2.981 0 0 0 1.504-.129c.475-.17.882-.46 1.168-.83.285-.37.438-.806.438-1.251-.001-.597-.276-1.17-.764-1.592-.488-.422-1.15-.66-1.84-.66Zm13.869 6.963a6.063 6.063 0 0 1-3.025-.794c-.895-.518-1.593-1.254-2.005-2.114a4.125 4.125 0 0 1-.31-2.722c.21-.914.729-1.754 1.49-2.413.762-.659 1.732-1.107 2.788-1.289a6.235 6.235 0 0 1 3.145.268c.995.357 1.845.96 2.443 1.735.599.775.918 1.686.918 2.618-.002 1.249-.576 2.446-1.596 3.33-1.02.883-2.405 1.38-3.848 1.38Zm0-6.963a2.9 2.9 0 0 0-1.446.38c-.428.247-.762.6-.959 1.01a1.973 1.973 0 0 0-.148 1.302c.1.437.349.838.713 1.153.364.315.828.53 1.333.617a2.981 2.981 0 0 0 1.504-.129c.475-.17.881-.46 1.167-.83.286-.37.439-.806.439-1.251-.001-.597-.276-1.17-.764-1.592-.488-.422-1.15-.66-1.84-.66Z" fill="#000"/><path d="M9.697 9.63c-.298 0-.59-.081-.831-.232a1.259 1.259 0 0 1-.517-.61l-2.435-6.33H1.42a1.54 1.54 0 0 1-1.005-.36A1.152 1.152 0 0 1 0 1.23C0 .903.15.591.416.36A1.54 1.54 0 0 1 1.421 0h5.522c.298 0 .588.081.83.232.242.151.423.364.517.609l2.76 7.17c.07.186.09.382.056.575-.034.192-.12.375-.252.533a1.385 1.385 0 0 1-.505.376c-.2.088-.422.135-.647.135h-.005Z" fill="#000"/></svg>