<svg width="24" height="24" fill="none" xmlns="http://www.w3.org/2000/svg"><g clip-path="url(#a)"><path d="M22.526 3.631H18.23l-1.773-2.576A2.652 2.652 0 0 0 14.318 0H9.043c-.876 0-1.69.4-2.138 1.055L5.13 3.631H.834c-.462 0-.834.324-.834.727v.726c0 .404.372.726.834.726h.835v14.525c0 1.605 1.493 2.905 3.337 2.905h13.348c1.844 0 3.338-1.3 3.338-2.905V5.81h.834c.464 0 .834-.322.834-.726v-.726c0-.403-.37-.727-.834-.727ZM8.963 2.31a.32.32 0 0 1 .266-.131h4.902c.11 0 .215.05.267.13l.911 1.322H8.051l.912-1.321Zm9.391 18.752H5.006c-.461 0-.835-.325-.835-.727V5.81H19.19v14.525c0 .4-.376.727-.835.727Zm-6.674-2.18c.461 0 .834-.324.834-.725V8.715c0-.401-.373-.726-.834-.726-.461 0-.834.327-.834.726v9.442c0 .4.375.726.834.726Zm-4.171 0c.458 0 .834-.326.834-.725V8.715c0-.401-.373-.726-.834-.726-.462 0-.835.327-.835.726v9.442c0 .4.376.726.835.726Zm8.343 0c.46 0 .834-.324.834-.725V8.715c0-.401-.373-.726-.835-.726-.46 0-.834.327-.834.726v9.442c0 .4.376.726.835.726Z" fill="#F60A0A"/></g><defs><clipPath id="a"><path fill="#fff" d="M0 0h23.36v23.241H0z"/></clipPath></defs></svg>