<svg width="103" height="103" fill="none" xmlns="http://www.w3.org/2000/svg"><path d="M69.888 21.301h16.957l-3.742 3.77a4.7 4.7 0 0 0-1.377 3.322 4.7 4.7 0 0 0 1.377 3.323 4.75 4.75 0 0 0 3.34 1.37 4.75 4.75 0 0 0 3.338-1.37l11.841-11.781a4.697 4.697 0 0 0 0-6.645L89.782 1.51a4.752 4.752 0 0 0-6.43.247 4.697 4.697 0 0 0-.248 6.397l3.74 3.723H69.889c-1.256 0-2.46.496-3.349 1.38a4.7 4.7 0 0 0-1.387 3.332 4.7 4.7 0 0 0 1.387 3.332 4.749 4.749 0 0 0 3.35 1.38ZM91.202 51.65c-1.042 0-2.131-.33-3.173-.565a44.878 44.878 0 0 1-6.205-1.838 9.518 9.518 0 0 0-6.781.116 9.454 9.454 0 0 0-4.965 4.596l-1.042 2.12a57.662 57.662 0 0 1-12.6-9.424 57.427 57.427 0 0 1-9.472-12.535l1.989-1.32a9.444 9.444 0 0 0 4.62-4.94 9.38 9.38 0 0 0 .116-6.746 48.5 48.5 0 0 1-1.847-6.173 34.804 34.804 0 0 1-.568-3.205 14.121 14.121 0 0 0-4.928-8.476A14.254 14.254 0 0 0 37.064 0H22.855c-2.041-.019-4.063.4-5.927 1.228A14.205 14.205 0 0 0 12.053 4.8a14.117 14.117 0 0 0-2.939 5.266 14.068 14.068 0 0 0-.468 6.005A89.362 89.362 0 0 0 34.4 68.202c14.17 14.046 32.64 22.996 52.491 25.434h1.8a14.251 14.251 0 0 0 9.473-3.581 14.148 14.148 0 0 0 3.512-4.796 14.072 14.072 0 0 0 1.224-5.807V65.315a14.096 14.096 0 0 0-3.39-8.917 14.226 14.226 0 0 0-8.309-4.749Zm2.368 28.274a4.693 4.693 0 0 1-1.61 3.535 5.027 5.027 0 0 1-3.884 1.178 80.677 80.677 0 0 1-46.83-22.948 79.951 79.951 0 0 1-22.843-46.701 5.113 5.113 0 0 1 1.184-3.864 4.734 4.734 0 0 1 3.552-1.603h14.21a4.752 4.752 0 0 1 3.041 1.014 4.71 4.71 0 0 1 1.695 2.71c.19 1.287.426 2.56.71 3.816a52.198 52.198 0 0 0 2.18 7.305l-6.632 3.063a4.735 4.735 0 0 0-2.469 2.653 4.692 4.692 0 0 0 .148 3.614C42.84 48.222 54.576 59.9 69.178 66.682a4.759 4.759 0 0 0 3.6 0 4.74 4.74 0 0 0 2.7-2.45l2.936-6.598a65.094 65.094 0 0 0 7.483 2.167c1.263.283 2.542.519 3.837.707a4.74 4.74 0 0 1 2.723 1.687 4.697 4.697 0 0 1 1.019 3.026l.094 14.702Z" fill="#0771F5"/></svg>