<svg width="80" height="21" fill="none" xmlns="http://www.w3.org/2000/svg"><path d="M30.69 2.349H0v14.945h30.69V2.349Z" fill="#F6F6F6"/><path fill-rule="evenodd" clip-rule="evenodd" d="M28.389.667H1.535C.767.667 0 1.414 0 2.162v2.241h30.69V2.91c0-1.495-.767-2.242-2.301-2.242Z" fill="#265697"/><path fill-rule="evenodd" clip-rule="evenodd" d="M0 15.612v1.495c0 1.494.767 2.241 2.302 2.241h26.087c1.534 0 2.302-.747 2.302-2.241v-1.495H0Z" fill="#D97B16"/><path fill-rule="evenodd" clip-rule="evenodd" d="M21.41 6.23a5.632 5.632 0 0 0-1.946-.332c-2.145 0-3.657 1.075-3.67 2.616-.012 1.139 1.08 1.774 1.903 2.153.845.389 1.129.637 1.125.984-.005.531-.675.774-1.299.774-.869 0-1.33-.12-2.044-.416l-.28-.126-.304 1.774c.507.221 1.445.413 2.418.423 2.283 0 3.764-1.063 3.78-2.708.01-.902-.57-1.588-1.822-2.154-.759-.366-1.224-.611-1.219-.982 0-.33.394-.682 1.244-.682a4.023 4.023 0 0 1 1.625.303l.194.092.295-1.718Zm5.567-.187h-1.678c-.52 0-.909.141-1.137.658l-3.224 7.264h2.28s.372-.977.457-1.191l2.78.003c.065.278.264 1.188.264 1.188h2.015l-1.757-7.922Zm-2.678 5.11c.18-.457.866-2.217.866-2.217-.013.022.178-.458.287-.756l.147.683.503 2.29h-1.803Zm-12.934 2.809 1.357-7.926h2.172l-1.359 7.926h-2.17Zm-1.821-7.92L7.42 11.447l-.227-1.099C6.796 9.082 5.564 7.71 4.185 7.023l1.944 6.933 2.297-.003 3.418-7.911h-2.3Z" fill="#265697"/><path fill-rule="evenodd" clip-rule="evenodd" d="M5.447 6.037H1.946l-.028.165c2.724.656 4.526 2.241 5.274 4.146l-.761-3.642c-.132-.502-.513-.652-.984-.67Z" fill="#D97B16"/><path d="M69.95 0C75.5 0 80 4.499 80 10.05c0 5.55-4.5 10.048-10.05 10.048a10.028 10.028 0 0 1-7.933-3.88 10 10 0 0 0 2.116-6.169c0-2.325-.79-4.465-2.116-6.168A10.028 10.028 0 0 1 69.951 0Z" fill="#F79F1A"/><path d="M62.017 3.881a10.001 10.001 0 0 1 2.116 6.168c0 2.325-.79 4.465-2.116 6.168a10 10 0 0 1-2.115-6.168c0-2.325.789-4.465 2.115-6.168Z" fill="#FF5F01"/><path d="M54.084 0c3.225 0 6.096 1.519 7.933 3.881a10.001 10.001 0 0 0-2.115 6.168c0 2.325.789 4.465 2.115 6.168a10.028 10.028 0 0 1-7.933 3.881c-5.55 0-10.05-4.498-10.05-10.049C44.034 4.5 48.534 0 54.084 0Z" fill="#EA001B"/><path d="M61.983 9.889v.388h.068V9.89h.16v-.07h-.388v.068h.16Zm15.789-.436c-.693-.921-2.526-.431-2.526 1.174 0 1.639 1.901 2.078 2.526 1.174v.389h.668V7.823h-.668v1.63Zm-.895 2.162c-.575 0-.946-.439-.946-.988 0-.55.371-.988.946-.988.557 0 .946.439.946.988 0 .575-.389.988-.946.988ZM52.463 9.453a1.217 1.217 0 0 0-.989-.457c-.87 0-1.537.693-1.537 1.63 0 .947.667 1.631 1.537 1.631.44 0 .76-.16.989-.456v.389h.667V9.08h-.667v.373Zm-.896 2.162c-.6 0-.946-.439-.946-.988 0-.55.346-.988.946-.988.55 0 .913.439.921.988 0 .574-.371.988-.92.988Z" fill="#000"/><path d="M61.519 8.988c-.895 0-1.538.667-1.538 1.63 0 1.732 1.91 2.02 2.856 1.2l-.321-.507c-.66.54-1.656.49-1.85-.414h2.323c0-1.368-.625-1.91-1.47-1.91Zm-.828 1.36c.068-.44.346-.735.802-.735.44 0 .735.254.811.735h-1.613Zm10.805-.895c-.702-.93-2.526-.406-2.526 1.174 0 1.622 1.892 2.087 2.526 1.174v.389h.692V9.081h-.692v.372Zm-.896 2.162c-.574 0-.92-.439-.92-.988 0-.55.346-.988.92-.988.575 0 .946.439.946.988 0 .575-.372.988-.946.988ZM48.095 8.997c-.388 0-.802.118-1.081.548-.203-.346-.549-.548-1.03-.548-.322 0-.643.118-.896.456V9.08h-.693v3.1h.693c0-1.596-.211-2.55.76-2.55.862 0 .693.86.693 2.55h.667c0-1.545-.211-2.55.76-2.55.862 0 .693.844.693 2.55h.693v-1.94h-.017c0-.736-.481-1.217-1.242-1.242Zm6.522.963c0-.482 1.005-.406 1.563-.093l.279-.55c-.795-.515-2.552-.506-2.552.693 0 1.208 1.935.701 1.935 1.268 0 .532-1.14.49-1.749.067l-.295.532c.946.642 2.753.507 2.753-.633 0-1.267-1.934-.693-1.934-1.285Zm3.709 1.148V9.706h1.106v-.625h-1.106v-.946h-.693v.946h-.642v.617h.642v1.41c0 1.487 1.461 1.217 1.909.921l-.186-.574c-.32.177-1.03.371-1.03-.347Zm6.048-1.655V9.08h-.693v3.1h.693v-1.748c0-.98.803-.853 1.082-.71l.202-.642c-.388-.169-.98-.152-1.284.372Zm3.928.464.321-.549c-.98-.769-2.762-.346-2.762 1.267 0 1.673 1.892 2.01 2.762 1.268l-.32-.55c-.778.55-1.75.22-1.75-.726 0-.963.98-1.276 1.75-.71Zm5.449-.464V9.08h-.667v3.1h.667v-1.748c0-.93.76-.87 1.081-.71l.203-.642c-.203-.101-.93-.245-1.284.372Zm5.863 2.348c-.025-.025-.042-.068-.068-.093-.025-.025-.067-.042-.092-.067-.043 0-.093-.026-.136-.026-.025 0-.067.026-.118.026a.434.434 0 0 0-.093.067c-.042.025-.067.068-.067.093-.026.042-.026.093-.026.135 0 .026 0 .068.026.118 0 .026.025.068.067.094a.292.292 0 0 0 .093.067.23.23 0 0 0 .118.025c.043 0 .093 0 .136-.025.025-.025.067-.042.093-.067.025-.026.042-.068.067-.094.025-.05.025-.092.025-.118 0-.042 0-.093-.025-.135Z" fill="#000"/><path d="M62.27 9.821h-.117l-.136.296-.135-.296h-.118v.456h.067v-.346l.136.296h.092l.119-.296v.346h.093v-.456Z" fill="#000"/></svg>