<svg width="120" height="31" fill="none" xmlns="http://www.w3.org/2000/svg"><path d="M46 3.52H0v22.4h46V3.52Z" fill="#F6F6F6"/><path fill-rule="evenodd" clip-rule="evenodd" d="M42.55 1H2.3C1.15 1 0 2.12 0 3.24V6.6h46V4.36C46 2.12 44.85 1 42.55 1Z" fill="#265697"/><path fill-rule="evenodd" clip-rule="evenodd" d="M0 23.4v2.24C0 27.88 1.15 29 3.45 29h39.1c2.3 0 3.45-1.12 3.45-3.36V23.4H0Z" fill="#D97B16"/><path fill-rule="evenodd" clip-rule="evenodd" d="M32.09 9.34a8.44 8.44 0 0 0-2.917-.5c-3.215 0-5.48 1.611-5.5 3.92-.018 1.708 1.617 2.66 2.852 3.229 1.266.582 1.692.953 1.686 1.473-.008.797-1.012 1.16-1.947 1.16-1.302 0-1.994-.18-3.063-.623l-.42-.189-.456 2.66c.76.331 2.166.619 3.625.634 3.42 0 5.64-1.593 5.666-4.06.012-1.351-.855-2.38-2.732-3.227-1.137-.55-1.834-.917-1.826-1.473 0-.494.59-1.022 1.863-1.022a6.03 6.03 0 0 1 2.436.455l.291.137.441-2.575Zm8.344-.282h-2.515c-.779 0-1.362.211-1.704.985l-4.833 10.888H34.8s.559-1.464.685-1.785l4.168.005c.097.416.396 1.78.396 1.78h3.02L40.433 9.058Zm-4.013 7.658c.269-.685 1.296-3.322 1.296-3.322-.019.032.267-.688.432-1.133l.22 1.024.753 3.43h-2.701Zm-19.387 4.211 2.035-11.88h3.254l-2.036 11.88h-3.253ZM14.305 9.055l-3.186 8.102-.34-1.646c-.592-1.898-2.44-3.955-4.506-4.984l2.913 10.39 3.443-.004 5.123-11.858h-3.447Z" fill="#265697"/><path fill-rule="evenodd" clip-rule="evenodd" d="M8.164 9.048H2.917l-.042.247c4.082.983 6.783 3.36 7.905 6.216l-1.141-5.46c-.197-.752-.769-.977-1.475-1.003Z" fill="#D97B16"/><path d="M104.844 0c8.318 0 15.062 6.743 15.062 15.062 0 8.319-6.744 15.062-15.062 15.062a15.03 15.03 0 0 1-11.89-5.817 14.99 14.99 0 0 0 3.17-9.245 14.99 14.99 0 0 0-3.17-9.245A15.03 15.03 0 0 1 104.843 0Z" fill="#F79F1A"/><path d="M92.953 5.817a14.99 14.99 0 0 1 3.171 9.245 14.99 14.99 0 0 1-3.17 9.245 14.99 14.99 0 0 1-3.172-9.245 14.99 14.99 0 0 1 3.171-9.245Z" fill="#FF5F01"/><path d="M81.062 0a15.03 15.03 0 0 1 11.891 5.817 14.99 14.99 0 0 0-3.17 9.245 14.99 14.99 0 0 0 3.17 9.245 15.03 15.03 0 0 1-11.891 5.817C72.743 30.124 66 23.381 66 15.062 66 6.743 72.743 0 81.062 0Z" fill="#EA001B"/><path d="M92.902 14.821v.583h.102v-.583h.24v-.1h-.582v.1h.24Zm23.665-.653c-1.038-1.38-3.786-.646-3.786 1.76 0 2.457 2.849 3.115 3.786 1.76v.583h1v-6.546h-1v2.443Zm-1.342 3.241c-.861 0-1.418-.658-1.418-1.481 0-.823.557-1.481 1.418-1.481.836 0 1.418.658 1.418 1.481 0 .861-.582 1.481-1.418 1.481Zm-36.593-3.241c-.341-.418-.822-.684-1.481-.684-1.304 0-2.304 1.038-2.304 2.444 0 1.418 1 2.443 2.304 2.443.659 0 1.14-.24 1.481-.683v.582h1v-4.66h-1v.558Zm-1.342 3.241c-.899 0-1.418-.658-1.418-1.481 0-.823.52-1.482 1.418-1.482.823 0 1.368.658 1.38 1.482 0 .861-.557 1.481-1.38 1.481Z" fill="#000"/><path d="M92.206 13.471c-1.342 0-2.304 1-2.304 2.444 0 2.596 2.861 3.026 4.28 1.798l-.482-.76c-.987.81-2.482.735-2.773-.62h3.482c0-2.051-.937-2.862-2.203-2.862Zm-1.24 2.039c.1-.659.518-1.101 1.202-1.101.658 0 1.102.38 1.216 1.101h-2.419Zm16.194-1.342c-1.051-1.393-3.786-.608-3.786 1.76 0 2.431 2.836 3.127 3.786 1.76v.582h1.038v-4.66h-1.038v.558Zm-1.343 3.241c-.861 0-1.38-.658-1.38-1.481 0-.823.519-1.481 1.38-1.481.861 0 1.418.658 1.418 1.481 0 .861-.557 1.481-1.418 1.481Zm-33.73-3.925c-.583 0-1.203.177-1.621.823-.304-.519-.823-.823-1.545-.823-.481 0-.962.177-1.342.684v-.557h-1.038v4.647h1.038c0-2.393-.317-3.824 1.14-3.824 1.29 0 1.038 1.291 1.038 3.824h1c0-2.317-.317-3.824 1.14-3.824 1.291 0 1.038 1.266 1.038 3.824h1.038v-2.912h-.025c0-1.103-.722-1.824-1.861-1.862Zm9.775 1.444c0-.722 1.506-.608 2.342-.14l.418-.823c-1.19-.772-3.824-.76-3.824 1.039 0 1.81 2.9 1.05 2.9 1.9 0 .797-1.71.733-2.621.1l-.444.798c1.418.962 4.128.76 4.128-.95 0-1.899-2.9-1.038-2.9-1.924Zm5.558 1.722v-2.102h1.659v-.937H87.42v-1.418h-1.038v1.418h-.963v.924h.963v2.114c0 2.23 2.19 1.824 2.861 1.38l-.278-.86c-.481.265-1.545.557-1.545-.52Zm9.066-2.482v-.557h-1.039v4.647h1.039v-2.621c0-1.469 1.203-1.28 1.62-1.064l.304-.962c-.582-.253-1.468-.228-1.924.557Zm5.888.696.48-.823c-1.468-1.152-4.14-.519-4.14 1.9 0 2.507 2.837 3.013 4.14 1.899l-.48-.823c-1.165.823-2.621.33-2.621-1.089 0-1.444 1.468-1.912 2.621-1.064Zm8.166-.696v-.557h-1v4.647h1v-2.621c0-1.394 1.14-1.305 1.621-1.064l.304-.962c-.304-.152-1.393-.367-1.925.557Zm8.788 3.52c-.038-.038-.064-.102-.102-.14-.038-.037-.101-.062-.139-.1-.063 0-.139-.039-.203-.039-.037 0-.101.038-.177.038a.675.675 0 0 0-.139.102c-.063.037-.101.101-.101.139-.038.063-.038.14-.038.203 0 .037 0 .1.038.177 0 .037.038.101.101.139.038.038.063.063.139.101.064.038.14.038.177.038.064 0 .14 0 .203-.038.038-.038.101-.063.139-.101.038-.038.064-.102.102-.14.038-.075.038-.139.038-.177 0-.063 0-.139-.038-.202Z" fill="#000"/><path d="M93.333 14.72h-.177l-.203.443-.203-.443h-.177v.684h.102v-.52l.202.444h.14l.177-.443v.519h.139v-.684Z" fill="#000"/></svg>