<svg width="48" height="38" fill="none" xmlns="http://www.w3.org/2000/svg"><path d="M43.84 14.465H27v15.07c.06-5.52 4.55-10 10-10 5.46 0 9.95 4.44 10 9.9 0 .35-.02.69-.05 1.03H48v-10.33l-4.16-5.67Z" fill="#000"/><path d="M36.51 4.465H27v8h15.37l-5.86-8ZM0 30.505h2.05c-.03-.32-.05-.64-.05-.97.04-5.52 4.52-10 10-10 5.49 0 9.98 4.46 10 9.95 0 .33-.02.66-.05.98h3.04v-30H0v30.04Zm8-28.04h13v8c0 3.24-5.38 6.5-5.99 6.86l-.51.3-.5-.3c-.62-.36-6-3.62-6-6.86v-8Z" fill="#F93E2B"/><path d="M12 21.535c-4.39 0-7.97 3.57-8 8 0 4.41 3.59 8 8 8s8-3.59 8-8.04c-.02-4.39-3.61-7.96-8-7.96Zm0 11c-1.65 0-3-1.35-3-3 .03-1.68 1.38-3 3-3 1.65 0 2.97 1.29 3 2.95 0 1.7-1.34 3.05-3 3.05Zm25-11c-4.36 0-7.95 3.55-8 8 0 4.41 3.59 8 8 8s8-3.59 8-8.08c-.04-4.37-3.63-7.92-8-7.92Zm3 8c0 1.65-1.34 3-3 3-1.65 0-3-1.35-3-3v-.11a2.993 2.993 0 0 1 3-2.89c1.62 0 2.94 1.27 3 2.89v.11Z" fill="#000"/></svg>