<svg width="44" height="44" fill="none" xmlns="http://www.w3.org/2000/svg"><path d="M22 .333A21.667 21.667 0 0 0 .334 22 21.429 21.429 0 0 0 5.23 35.715L.897 40.048a2.167 2.167 0 0 0-.455 2.362A2.167 2.167 0 0 0 2.5 43.667H22A21.666 21.666 0 1 0 22 .333Zm0 39H7.722l2.015-2.015a2.167 2.167 0 0 0 0-3.055A17.333 17.333 0 1 1 22 39.333Zm10.834-19.5H11.166a2.167 2.167 0 1 0 0 4.334h21.667a2.166 2.166 0 1 0 0-4.334ZM28.5 28.5h-13a2.167 2.167 0 0 0 0 4.333h13a2.167 2.167 0 0 0 0-4.333Zm-13-13h13a2.167 2.167 0 0 0 0-4.333h-13a2.167 2.167 0 0 0 0 4.333Z" fill="#000"/></svg>