<svg width="92" height="88" fill="none" xmlns="http://www.w3.org/2000/svg"><path d="M45.638 87.687A37.668 37.668 0 0 1 18.951 76.86a3.812 3.812 0 0 1 .495-5.833 7.625 7.625 0 0 0-4.308-13.84 7.131 7.131 0 0 0-2.25.344 3.812 3.812 0 0 1-5.032-2.974 33.17 33.17 0 0 1-.343-4.995 38.125 38.125 0 0 1 25.62-36.028 3.813 3.813 0 0 1 3.203.343 3.813 3.813 0 0 1 1.83 2.67 7.625 7.625 0 0 0 14.945 0 3.813 3.813 0 0 1 1.83-2.67 3.813 3.813 0 0 1 3.202-.343 38.124 38.124 0 0 1 25.62 36.028 32.783 32.783 0 0 1-.343 4.995 3.814 3.814 0 0 1-5.033 2.974 7.131 7.131 0 0 0-2.249-.344 7.625 7.625 0 0 0-4.422 13.84 3.811 3.811 0 0 1 .61 5.833 37.668 37.668 0 0 1-26.688 10.827Zm-18.3-13.725a30.5 30.5 0 0 0 36.6 0 15.25 15.25 0 0 1 12.2-24.4 30.5 30.5 0 0 0-16.966-27.335 15.25 15.25 0 0 1-27.068 0 30.5 30.5 0 0 0-16.966 27.335 15.25 15.25 0 0 1 12.2 24.4Z" fill="#0771F5"/><path d="M45.638 0a15.25 15.25 0 0 0-15.25 15.25c-.015.845.062 1.688.229 2.516a15.25 15.25 0 0 0 29.966.305 11.86 11.86 0 0 0 .305-2.821A15.25 15.25 0 0 0 45.638 0Zm35.266 50.363a14.371 14.371 0 0 0-4.766-.8 15.25 15.25 0 1 0 15.25 15.25 15.25 15.25 0 0 0-10.484-14.45Zm-65.766-.801a14.184 14.184 0 0 0-4.651.763 15.25 15.25 0 1 0 4.651-.763Z" fill="#0771F5"/></svg>