<svg width="36" height="35" fill="none" xmlns="http://www.w3.org/2000/svg"><path d="M15.158.5c8.074 0 14.657 6.421 14.657 14.237 0 3.364-1.271 6.209-3.124 8.73l-.257.351.312.304 8.337 8.105c.556.54.556 1.321 0 1.862a1.59 1.59 0 0 1-.977.411c-.26 0-.7-.14-.978-.411l-8.337-8.106-.321-.311-.346.284c-2.364 1.945-5.47 3.018-8.966 3.018C7.084 28.974.5 22.553.5 14.737S7.084.5 15.158.5Zm0 2.685C8.643 3.185 3.29 8.369 3.29 14.737c0 6.368 5.354 11.552 11.87 11.552 6.514 0 11.867-5.184 11.867-11.552 0-6.368-5.352-11.552-11.868-11.552Z" fill="#fff" stroke="#000"/></svg>